<?xml version="1.0" encoding="UTF-8"?>
<svg xmlns="http://www.w3.org/2000/svg" xmlns:xlink="http://www.w3.org/1999/xlink" width="256px" height="256px" viewBox="0 0 256 256" version="1.1">
<g id="surface1">
<path style=" stroke:none;fill-rule:evenodd;fill:rgb(0%,0%,0%);fill-opacity:1;" d="M 127.988281 14.507812 C 65.324219 14.507812 14.507812 65.320312 14.507812 128.003906 C 14.507812 178.140625 47.023438 220.683594 92.121094 235.699219 C 97.800781 236.734375 99.871094 233.230469 99.871094 230.222656 C 99.871094 227.523438 99.773438 220.390625 99.714844 210.921875 C 68.148438 217.777344 61.488281 195.707031 61.488281 195.707031 C 56.324219 182.59375 48.882812 179.101562 48.882812 179.101562 C 38.578125 172.0625 49.664062 172.203125 49.664062 172.203125 C 61.054688 173.003906 67.046875 183.902344 67.046875 183.902344 C 77.167969 201.242188 93.613281 196.234375 100.078125 193.328125 C 101.109375 186 104.042969 180.996094 107.28125 178.160156 C 82.082031 175.289062 55.585938 165.558594 55.585938 122.066406 C 55.585938 109.671875 60.007812 99.550781 67.269531 91.613281 C 66.097656 88.742188 62.203125 77.207031 68.382812 61.578125 C 68.382812 61.578125 77.910156 58.527344 99.589844 73.207031 C 108.640625 70.691406 118.351562 69.4375 128.003906 69.386719 C 137.644531 69.4375 147.351562 70.691406 156.414062 73.207031 C 178.082031 58.527344 187.59375 61.578125 187.59375 61.578125 C 193.789062 77.207031 189.894531 88.742188 188.730469 91.613281 C 196.003906 99.550781 200.394531 109.671875 200.394531 122.066406 C 200.394531 165.667969 173.855469 175.261719 148.578125 178.070312 C 152.644531 181.574219 156.277344 188.5 156.277344 199.089844 C 156.277344 214.257812 156.136719 226.5 156.136719 230.222656 C 156.136719 233.257812 158.183594 236.792969 163.941406 235.683594 C 209.003906 220.640625 241.492188 178.132812 241.492188 128.003906 C 241.492188 65.320312 190.675781 14.507812 127.988281 14.507812 Z M 127.988281 14.507812 "/>
</g>
</svg>
