<?xml version="1.0" encoding="UTF-8"?>
<svg xmlns="http://www.w3.org/2000/svg" xmlns:xlink="http://www.w3.org/1999/xlink" width="910px" height="512px" viewBox="0 0 910 512" version="1.1">
<g id="surface1">
<path style=" stroke:none;fill-rule:nonzero;fill:rgb(0%,0%,0%);fill-opacity:1;" d="M 442.085938 8.296875 C 416.253906 9.410156 393.644531 12.988281 369.570312 19.816406 C 333.003906 30.199219 297.195312 48.472656 268.140625 71.5625 C 258.285156 79.382812 249.019531 87.253906 242.546875 93.296875 C 184.179688 147.816406 148.964844 222.175781 143.609375 302.222656 C 143.015625 311.109375 142.96875 318.792969 142.992188 389.808594 C 143.015625 459.851562 143.039062 464.117188 143.445312 466.25 C 144.984375 474.5 147.851562 481.042969 152.542969 487.0625 C 165.078125 503.109375 187.828125 508.183594 206.527344 499.082031 C 220.128906 492.46875 229.085938 479.621094 231.03125 463.90625 C 231.21875 462.554688 231.292969 439.109375 231.316406 391.847656 C 231.339844 350.816406 231.433594 320.734375 231.550781 319.289062 C 232.238281 311.65625 234.871094 303.882812 238.734375 298.074219 C 246.007812 287.195312 257.878906 279.917969 270.984375 278.28125 C 274.019531 277.902344 279.847656 277.949219 282.738281 278.398438 C 297.054688 280.535156 309.828125 290.085938 316.25 303.453125 C 318.691406 308.527344 320.160156 314.050781 320.632812 319.859375 C 320.796875 321.683594 320.871094 347.851562 320.871094 391.136719 C 320.847656 439.492188 320.917969 460.324219 321.105469 462.246094 C 321.792969 469.285156 323.785156 475.757812 326.890625 481.042969 C 333.191406 491.757812 343.714844 499.4375 355.824219 502.210938 C 359.355469 503.015625 367.363281 503.230469 371.726562 502.660156 C 378.171875 501.808594 383.859375 499.792969 389.402344 496.332031 C 399.972656 489.789062 407.296875 478.554688 409.664062 465.234375 C 410.019531 463.265625 410.070312 456.273438 410.210938 390.164062 C 410.375 310.660156 410.257812 316.941406 411.632812 311.65625 C 412.792969 307.222656 414.738281 302.648438 417.15625 298.785156 C 422.984375 289.398438 432.890625 282.40625 444.3125 279.585938 C 448.53125 278.542969 449.929688 278.398438 455.238281 278.398438 C 459.835938 278.421875 460.617188 278.472656 463.292969 279.039062 C 482.988281 283.257812 497.300781 299.210938 499.316406 319.171875 C 499.527344 321.328125 499.503906 400.6875 499.292969 456.4375 C 499.242188 468.976562 501.707031 476.824219 508.605469 486.019531 C 511.96875 490.523438 517.347656 495.171875 522.46875 498.039062 C 527.113281 500.621094 533.367188 502.636719 538.628906 503.230469 C 542.492188 503.679688 549.222656 503.417969 552.753906 502.660156 C 572.398438 498.511719 586.664062 482.277344 588.394531 462.105469 C 588.5625 460.230469 588.65625 436.078125 588.65625 390.828125 C 588.65625 316.421875 588.585938 320.214844 589.960938 314.59375 C 591.617188 307.769531 595.292969 300.777344 600.078125 295.347656 C 607 287.527344 617.070312 282.121094 627.449219 280.675781 C 642.332031 278.589844 658.019531 284.585938 667.570312 295.988281 C 673.660156 303.265625 676.671875 310.398438 677.785156 320.191406 C 677.972656 321.96875 678.070312 341.285156 678.09375 393.195312 L 678.117188 463.761719 L 678.636719 466.417969 C 680.011719 473.316406 682.167969 478.671875 685.769531 484.054688 C 694.585938 497.183594 710.296875 504.792969 725.914062 503.515625 C 735.085938 502.753906 743.070312 499.554688 750.039062 493.867188 C 752.3125 491.992188 756.34375 487.773438 758.144531 485.332031 C 762.621094 479.335938 765.796875 471.632812 766.675781 464.804688 C 767.125 461.25 767.125 309.546875 766.675781 302.816406 C 765.253906 281.742188 762.457031 263.726562 757.621094 244.621094 C 747.527344 204.777344 729.753906 167.5625 704.777344 134.042969 C 700.984375 128.972656 692.667969 118.613281 690.4375 116.242188 C 690.320312 116.101562 689.515625 115.199219 688.660156 114.226562 C 684.515625 109.511719 681.859375 106.714844 675.507812 100.386719 C 667.925781 92.800781 666.835938 91.734375 662 87.441406 C 631.667969 60.46875 595.695312 39.183594 558.203125 26.027344 C 551.949219 23.847656 551.191406 23.585938 545.785156 21.925781 C 526.425781 15.976562 506.425781 11.875 486.875 9.859375 C 479.597656 9.101562 479.148438 9.078125 474.195312 8.769531 C 471.921875 8.652344 469.359375 8.484375 468.507812 8.414062 C 465.59375 8.179688 446.800781 8.105469 442.085938 8.296875 Z M 442.085938 8.296875 "/>
</g>
</svg>
